<svg xmlns="http://www.w3.org/2000/svg" viewBox="0 0 128 128" role="img" aria-labelledby="title desc">
  <title id="title">JANE-ai mark</title>
  <desc id="desc">A luminous J linked into an ansible-style network.</desc>
  <defs>
    <linearGradient id="bg" x1="18" y1="16" x2="112" y2="112" gradientUnits="userSpaceOnUse">
      <stop stop-color="#163447"/>
      <stop offset="1" stop-color="#050b14"/>
    </linearGradient>
    <linearGradient id="stroke" x1="30" y1="18" x2="88" y2="104" gradientUnits="userSpaceOnUse">
      <stop stop-color="#e6f7ff"/>
      <stop offset=".55" stop-color="#74e3d5"/>
      <stop offset="1" stop-color="#f2c46d"/>
    </linearGradient>
  </defs>
  <rect width="128" height="128" rx="32" fill="url(#bg)"/>
  <path d="M92 28H54c-6.627 0-12 5.373-12 12v34c0 6.627 5.373 12 12 12h8c6.627 0 12-5.373 12-12V52" fill="none" stroke="url(#stroke)" stroke-linecap="round" stroke-linejoin="round" stroke-width="12"/>
  <path d="M28 36 42 40M84 22l10 8M30 90l16-6M80 102l14-16M22 62h14M97 58h11" fill="none" stroke="#4e8da0" stroke-linecap="round" stroke-width="4"/>
  <circle cx="22" cy="62" r="5" fill="#f2c46d"/>
  <circle cx="30" cy="36" r="5" fill="#74e3d5"/>
  <circle cx="94" cy="30" r="5" fill="#74e3d5"/>
  <circle cx="30" cy="90" r="5" fill="#f2c46d"/>
  <circle cx="94" cy="86" r="5" fill="#74e3d5"/>
</svg>
